<?xml version="1.0" encoding="UTF-8"?>
<svg version="1.1" xmlns="http://www.w3.org/2000/svg" width="500" height="500">
<path d="M0 0 C1.05630615 0.28391602 2.1126123 0.56783203 3.20092773 0.86035156 C8.67538504 2.41481269 14.14139415 3.99078082 19.59033203 5.6328125 C21.50150967 6.2078657 23.41481609 6.77582821 25.328125 7.34375 C31.33609668 9.14675897 37.28463109 11.0308033 43.1796875 13.17578125 C52.071285 16.40521748 61.08902823 19.23187644 70.10717773 22.0847168 C73.09381642 23.02963787 76.07921896 23.97838646 79.06445312 24.92773438 C80.98300274 25.53667947 82.90162012 26.14541113 84.8203125 26.75390625 C85.70271103 27.03413132 86.58510956 27.31435638 87.49424744 27.60307312 C92.18998101 29.08736827 96.89395142 30.50934259 101.63671875 31.8359375 C112.41541535 82.38069923 100.71695739 140.56350108 73.64038086 184.02392578 C69.08656056 191.02085722 63.51383574 196.942195 57.63671875 202.8359375 C56.35474609 204.12564453 56.35474609 204.12564453 55.046875 205.44140625 C54.25152344 206.23160156 53.45617187 207.02179688 52.63671875 207.8359375 C51.9509375 208.51914062 51.26515625 209.20234375 50.55859375 209.90625 C38.45388931 221.35782291 23.92470833 229.42810028 8.63671875 235.8359375 C7.50878906 236.31417969 6.38085938 236.79242188 5.21875 237.28515625 C-1.44278766 239.82650332 -5.71353468 240.37993213 -12.36328125 237.8359375 C-13.59691406 237.38863281 -14.83054687 236.94132813 -16.1015625 236.48046875 C-31.36865166 230.70551856 -45.16058314 222.71267314 -57.36328125 211.8359375 C-58.63751953 210.74152344 -58.63751953 210.74152344 -59.9375 209.625 C-74.44971699 196.95736802 -87.04303083 180.81549993 -94.36328125 162.8359375 C-94.36328125 162.1759375 -94.36328125 161.5159375 -94.36328125 160.8359375 C-95.02328125 160.8359375 -95.68328125 160.8359375 -96.36328125 160.8359375 C-102.43739983 144.00541857 -106.91444614 127.11189372 -110.73413086 109.66308594 C-111.10631112 107.99065778 -111.49685838 106.32185042 -111.92773438 104.66357422 C-117.10624812 82.9335552 -114.62057772 53.72831761 -111.36328125 31.8359375 C-92.21897449 25.57165779 -73.03442465 19.44555569 -53.80078125 13.4609375 C-52.85731842 13.16693054 -51.91385559 12.87292358 -50.94180298 12.57000732 C-40.91294157 9.4466376 -30.87973336 6.34985224 -20.78294373 3.45205688 C-17.98917642 2.64389633 -15.25139053 1.79343099 -12.53173828 0.76025391 C-7.82539852 -0.99316101 -4.88434777 -1.32285305 0 0 Z " fill="#EDEDED" transform="translate(254.36328125,130.1640625)"/>
<path d="M0 0 C0.99 0.66 1.98 1.32 3 2 C3 2.66 3 3.32 3 4 C3.53625 3.99097656 4.0725 3.98195312 4.625 3.97265625 C17.05243708 4.44277311 28.76049307 11.71775619 39.59619141 17.33422852 C43.39954413 19.28923675 46.88712461 20.62904154 51 22 C51 17.71 51 13.42 51 9 C49.02 9 47.04 9 45 9 C45 7.02 45 5.04 45 3 C53.25 3 61.5 3 70 3 C70 5.31 70 7.62 70 10 C68.02 10 66.04 10 64 10 C64.495 15.445 64.495 15.445 65 21 C73.46064139 18.74991029 80.45678924 15.30048912 88.05664062 11.02734375 C95.364131 7.03946424 102.6950003 4.41976489 111 3.5 C114.0050403 3.30632189 114.0050403 3.30632189 115.5 1.4375 C117 0 117 0 120.5 -0.375 C124 0 124 0 125.9375 1.0625 C127.57511185 4.04873337 127.24249947 6.66563234 127 10 C126.67 10.66 126.34 11.32 126 12 C125.34 12 124.68 12 124 12 C126.51078851 23.44973097 129.16096828 34.84808738 132.1484375 46.18359375 C132.41279602 47.19128815 132.67715454 48.19898254 132.94952393 49.23721313 C134.03277648 53.36025534 135.11883996 57.48239319 136.22314453 61.59985352 C137.04352434 64.66642091 137.84726277 67.73696152 138.6484375 70.80859375 C138.90039886 71.73151718 139.15236023 72.65444061 139.41195679 73.60533142 C140.73571078 78.73910759 141.34608328 82.73468809 140 88 C136.59306014 92.54258648 132.51224731 94.88207153 127 96 C119.07717057 96.75807703 111.52740912 97.0805275 105 92 C102.21487514 89.14346169 100.53881177 86.95185694 100 83 C100.54223633 80.05419922 100.54223633 80.05419922 101.51953125 76.4296875 C101.89884147 74.98949251 102.27718638 73.54904309 102.65478516 72.10839844 C102.86846741 71.30317749 103.08214966 70.49795654 103.30230713 69.66833496 C104.65292526 64.5028793 105.91731298 59.31565612 107.19921875 54.1328125 C107.7736598 51.82411203 108.34853522 49.5155196 108.92382812 47.20703125 C109.81384255 43.63458815 110.7031438 40.06197627 111.59008789 36.48876953 C112.45761195 32.99456885 113.32811123 29.50112128 114.19921875 26.0078125 C114.59919319 24.39243088 114.59919319 24.39243088 115.00724792 22.74441528 C115.2545314 21.75513031 115.50181488 20.76584534 115.7565918 19.74658203 C116.08157906 18.43997116 116.08157906 18.43997116 116.41313171 17.10696411 C117 15 117 15 118 13 C108.00298075 9.66766025 99.02041535 13.6096262 90 18 C86.31969828 19.93492786 82.66081772 21.911777 79.07397461 24.01538086 C73.55993552 27.12278074 70.88619321 27.23486742 64 28 C64 60.01 64 92.02 64 125 C68.95 125 73.9 125 79 125 C79 127.31 79 129.62 79 132 C82.96 132 86.92 132 91 132 C91 133.98 91 135.96 91 138 C70.21 138 49.42 138 28 138 C28 136.02 28 134.04 28 132 C31.96 132 35.92 132 40 132 C40 129.69 40 127.38 40 125 C43.63 125 47.26 125 51 125 C51 92.99 51 60.98 51 28 C48.03 27.67 45.06 27.34 42 27 C38.90209961 25.83251953 38.90209961 25.83251953 36.15234375 24.3828125 C35.13462891 23.85816406 34.11691406 23.33351562 33.06835938 22.79296875 C32.03517578 22.24253906 31.00199219 21.69210938 29.9375 21.125 C17.1846946 13.90681773 17.1846946 13.90681773 3 12 C2.01 12.33 1.02 12.66 0 13 C0.19110352 13.69335449 0.38220703 14.38670898 0.57910156 15.10107422 C3.84615253 26.99180304 7.08498548 38.85784152 9.64916992 50.92211914 C10.62050546 55.44226285 11.76575036 59.87137624 13.0625 64.3125 C18.38289446 82.6359385 18.38289446 82.6359385 17 87.5625 C13.19635278 92.19819505 9.75984519 94.40118176 4 96 C-4.02843647 96.75211932 -12.46143968 97.38173811 -19 92 C-21.5625 89.3125 -21.5625 89.3125 -23 86 C-22.59848769 78.21805093 -20.5959461 70.90254641 -18.62109375 63.390625 C-18.28550808 62.09285541 -17.9506466 60.79489836 -17.61647034 59.49676514 C-16.56366743 55.41271817 -15.50126337 51.33120372 -14.4375 47.25 C-13.20023874 42.50243112 -11.96702302 37.75388277 -10.74379158 33.00267792 C-10.25456359 31.11087712 -9.75801362 29.22097468 -9.26133728 27.33111572 C-8.96425369 26.17931824 -8.6671701 25.02752075 -8.36108398 23.84082031 C-7.96589821 22.32600067 -7.96589821 22.32600067 -7.56272888 20.78057861 C-7.01420775 18.07020392 -6.78206603 15.75431045 -7 13 C-7.495 12.34 -7.99 11.68 -8.5 11 C-10 9 -10 9 -10.4375 6.5 C-9.39833563 0.56191786 -5.53274578 -0.70630797 0 0 Z " fill="#090909" transform="translate(191,177)"/>
<path d="M0 0 C1.05630615 0.28391602 2.1126123 0.56783203 3.20092773 0.86035156 C8.67538504 2.41481269 14.14139415 3.99078082 19.59033203 5.6328125 C21.50150967 6.2078657 23.41481609 6.77582821 25.328125 7.34375 C31.33609668 9.14675897 37.28463109 11.0308033 43.1796875 13.17578125 C52.071285 16.40521748 61.08902823 19.23187644 70.10717773 22.0847168 C73.09381642 23.02963787 76.07921896 23.97838646 79.06445312 24.92773438 C80.98300274 25.53667947 82.90162012 26.14541113 84.8203125 26.75390625 C85.70271103 27.03413132 86.58510956 27.31435638 87.49424744 27.60307312 C92.18998101 29.08736827 96.89395142 30.50934259 101.63671875 31.8359375 C112.41541535 82.38069923 100.71695739 140.56350108 73.64038086 184.02392578 C69.08656056 191.02085722 63.51383574 196.942195 57.63671875 202.8359375 C56.35474609 204.12564453 56.35474609 204.12564453 55.046875 205.44140625 C54.25152344 206.23160156 53.45617187 207.02179688 52.63671875 207.8359375 C51.9509375 208.51914062 51.26515625 209.20234375 50.55859375 209.90625 C38.45388931 221.35782291 23.92470833 229.42810028 8.63671875 235.8359375 C7.50878906 236.31417969 6.38085938 236.79242188 5.21875 237.28515625 C-1.44278766 239.82650332 -5.71353468 240.37993213 -12.36328125 237.8359375 C-13.59691406 237.38863281 -14.83054687 236.94132813 -16.1015625 236.48046875 C-31.36865166 230.70551856 -45.16058314 222.71267314 -57.36328125 211.8359375 C-58.63751953 210.74152344 -58.63751953 210.74152344 -59.9375 209.625 C-74.44971699 196.95736802 -87.04303083 180.81549993 -94.36328125 162.8359375 C-94.36328125 162.1759375 -94.36328125 161.5159375 -94.36328125 160.8359375 C-95.02328125 160.8359375 -95.68328125 160.8359375 -96.36328125 160.8359375 C-102.43739983 144.00541857 -106.91444614 127.11189372 -110.73413086 109.66308594 C-111.10631112 107.99065778 -111.49685838 106.32185042 -111.92773438 104.66357422 C-117.10624812 82.9335552 -114.62057772 53.72831761 -111.36328125 31.8359375 C-92.21897449 25.57165779 -73.03442465 19.44555569 -53.80078125 13.4609375 C-52.85731842 13.16693054 -51.91385559 12.87292358 -50.94180298 12.57000732 C-40.91294157 9.4466376 -30.87973336 6.34985224 -20.78294373 3.45205688 C-17.98917642 2.64389633 -15.25139053 1.79343099 -12.53173828 0.76025391 C-7.82539852 -0.99316101 -4.88434777 -1.32285305 0 0 Z M-15.68359375 8.92578125 C-16.3713942 9.14537506 -17.05919464 9.36496887 -17.76783752 9.59121704 C-20.01103909 10.30949245 -22.24949826 11.04151911 -24.48828125 11.7734375 C-26.06450182 12.2803307 -27.64108605 12.78609438 -29.21801758 13.29077148 C-32.41592344 14.31480797 -35.61245292 15.34297818 -38.80810547 16.37402344 C-45.20649791 18.43345729 -51.62782083 20.41705807 -58.05078125 22.3984375 C-60.37249066 23.11818378 -62.69410429 23.83823905 -65.015625 24.55859375 C-68.91248221 25.76689252 -72.80965928 26.97414087 -76.70751953 28.17919922 C-80.44964904 29.3363152 -84.19076693 30.49665518 -87.93130493 31.65890503 C-89.37835906 32.10790286 -90.82576428 32.55577083 -92.27352905 33.00247192 C-94.2783091 33.6211715 -96.28185561 34.24371725 -98.28515625 34.8671875 C-99.4359668 35.22361328 -100.58677734 35.58003906 -101.77246094 35.94726562 C-104.26343901 36.58961803 -104.26343901 36.58961803 -105.36328125 37.8359375 C-106.39432627 44.30721565 -106.5223076 50.86318545 -106.53125 57.40234375 C-106.5345784 58.28010971 -106.5379068 59.15787567 -106.54133606 60.0622406 C-106.54636176 61.90843183 -106.54874575 63.75463201 -106.54858398 65.60083008 C-106.55075696 68.36751007 -106.56892269 71.13378156 -106.58789062 73.90039062 C-106.63666214 88.85986063 -105.549247 103.3073434 -102.05078125 117.8984375 C-101.83349365 118.82470947 -101.61620605 119.75098145 -101.39233398 120.70532227 C-93.99238258 151.57178621 -81.51788693 177.87447586 -59.36328125 200.8359375 C-58.82541992 201.40006348 -58.28755859 201.96418945 -57.73339844 202.54541016 C-44.56100361 216.09172625 -24.84904397 228.50208285 -6.36328125 232.8359375 C-1.0239038 232.53971684 3.70515809 230.40264339 8.57421875 228.3359375 C9.40816162 227.98208984 10.24210449 227.62824219 11.10131836 227.26367188 C23.05508755 222.05378564 33.76759163 215.39250394 43.63671875 206.8359375 C44.44367188 206.16175781 45.250625 205.48757813 46.08203125 204.79296875 C68.51238929 185.4916105 81.72475472 158.92782166 89.63671875 130.8359375 C89.88566895 129.99490479 90.13461914 129.15387207 90.39111328 128.28735352 C92.43685784 121.18382378 93.69380013 114.08227256 94.76171875 106.7734375 C94.93058594 105.66677734 95.09945312 104.56011719 95.2734375 103.41992188 C95.7523031 100.22811294 96.2040787 97.03431897 96.63671875 93.8359375 C96.80119507 92.62744141 96.80119507 92.62744141 96.96899414 91.39453125 C97.83972172 84.02408296 97.82282827 76.62550573 97.82202148 69.21435547 C97.82420783 66.97213738 97.84242686 64.73041283 97.86132812 62.48828125 C97.89165255 55.96897894 97.79377282 49.44168581 97.125 42.953125 C97.03387939 42.02870605 96.94275879 41.10428711 96.84887695 40.15185547 C95.24591425 37.08927658 93.31357384 36.58001663 90.11271667 35.56329346 C89.29563736 35.32326599 88.47855804 35.08323853 87.63671875 34.8359375 C85.75876946 34.22558887 83.88119177 33.61409616 82.00390625 33.00170898 C79.84054103 32.3179397 77.67643535 31.63651015 75.51171875 30.95703125 C74.34309296 30.58827377 73.17446716 30.2195163 71.97042847 29.83958435 C68.83791782 28.85171849 65.70481078 27.86578041 62.57125092 26.88124847 C60.63304625 26.27228364 58.69495406 25.66296217 56.75689697 25.05352783 C56.11507162 24.85170773 55.47324627 24.64988762 54.81197166 24.44195175 C54.17035402 24.24019459 53.52873638 24.03843742 52.86767578 23.83056641 C49.0177506 22.61996601 45.16775417 21.40959519 41.31741333 20.20031738 C34.2054021 17.9650324 27.10065779 15.70900011 20.00390625 13.42578125 C17.83100144 12.7308431 15.65779117 12.03687341 13.484375 11.34353638 C11.5668091 10.72860408 9.65248742 10.10358379 7.73828125 9.47827148 C6.6090625 9.11934814 5.47984375 8.7604248 4.31640625 8.390625 C3.37522949 8.08624512 2.43405273 7.78186523 1.46435547 7.46826172 C-4.73549193 6.08183409 -9.71246951 6.99040133 -15.68359375 8.92578125 Z " fill="#1A1A1A" transform="translate(254.36328125,130.1640625)"/>
<path d="M0 0 C2.01604479 4.03208959 2.91934716 7.76343696 3.8125 12.125 C5.16541808 18.48681324 6.70344138 24.74921501 8.5 31 C10.85204515 39.21954168 12.7606437 47.49980375 14.54052734 55.85986328 C15.33879279 59.57803273 16.17156213 63.28845235 17 67 C11.39 67 5.78 67 0 67 C0 44.89 0 22.78 0 0 Z " fill="#E4E4E4" transform="translate(189,193)"/>
<path d="M0 0 C0.33 0 0.66 0 1 0 C1 21.78 1 43.56 1 66 C-4.61 66 -10.22 66 -16 66 C-10.07433835 38.80121303 -10.07433835 38.80121303 -7.078125 27.984375 C-5.53378798 22.37025571 -4.15640702 16.71236231 -2.75 11.0625 C-2.47929687 9.97557861 -2.20859375 8.88865723 -1.9296875 7.76879883 C-1.28551091 5.17943308 -0.64223346 2.58984827 0 0 Z " fill="#E5E5E5" transform="translate(310,194)"/>
<path d="M0 0 C1.93714923 2.90572385 2.49897179 4.5239179 3.2265625 7.85546875 C3.45005371 8.85562012 3.67354492 9.85577148 3.90380859 10.88623047 C4.14180176 11.97564941 4.37979492 13.06506836 4.625 14.1875 C6.38257783 22.04999353 8.1954718 29.88911646 10.171875 37.69921875 C10.44630936 38.78450111 10.44630936 38.78450111 10.72628784 39.89170837 C11.45420781 42.76352453 12.18437458 45.6347107 12.92315674 48.50375366 C13.43956693 50.50936108 13.9505349 52.5162944 14.4609375 54.5234375 C14.75790527 55.67763184 15.05487305 56.83182617 15.36083984 58.02099609 C16 61 16 61 16 65 C10.72 65 5.44 65 0 65 C0 43.55 0 22.1 0 0 Z " fill="#ECECEC" transform="translate(313,195)"/>
<path d="M0 0 C0.33 0 0.66 0 1 0 C1 21.45 1 42.9 1 65 C-4.28 65 -9.56 65 -15 65 C-14.40182122 58.15917673 -13.09441826 51.78972036 -11.34765625 45.15625 C-11.08746201 44.14711548 -10.82726776 43.13798096 -10.55918884 42.0982666 C-9.73275574 38.89731011 -8.89799871 35.69860094 -8.0625 32.5 C-7.232208 29.30099768 -6.40368169 26.10154724 -5.57652283 22.9017334 C-5.06337243 20.91882757 -4.54816786 18.93645176 -4.03053284 16.95471191 C-2.56716388 11.32509193 -1.22857067 5.68563474 0 0 Z " fill="#EDEDED" transform="translate(186,195)"/>
<path d="M0 0 C0.33 0 0.66 0 1 0 C1 22.11 1 44.22 1 67 C7.27 66.67 13.54 66.34 20 66 C20.33 66.66 20.66 67.32 21 68 C19.1891373 72.62776024 17.15969078 75.29136415 13 78 C5.65855487 80.94505303 -2.94616578 81.32955878 -10.61328125 79.3125 C-15.17209779 77.25201795 -17.76861523 74.55574391 -20 70 C-20.25 67.125 -20.25 67.125 -20 65 C-19.01 64.505 -19.01 64.505 -18 64 C-18 64.99 -18 65.98 -18 67 C-12.06 67 -6.12 67 0 67 C0 44.89 0 22.78 0 0 Z " fill="#040404" transform="translate(188,193)"/>
<path d="M0 0 C0.33 0 0.66 0 1 0 C1 21.45 1 42.9 1 65 C6.94 65 12.88 65 19 65 C19 64.34 19 63.68 19 63 C19.66 63 20.32 63 21 63 C20.76076631 67.0669728 20.40939331 69.45414226 17.9375 72.75 C10.30055042 78.5995784 2.3711812 78.98299104 -7 78 C-12.38652777 76.45862436 -16.00067144 73.7989257 -19 69 C-19.9375 66.9375 -19.9375 66.9375 -20 65 C-18.5625 62.75 -18.5625 62.75 -17 61 C-17 62.32 -17 63.64 -17 65 C-11.39 65 -5.78 65 0 65 C0 43.55 0 22.1 0 0 Z " fill="#030303" transform="translate(311,195)"/>
<path d="M0 0 C2.375 1.625 2.375 1.625 4 4 C4.60605429 7.63632575 4.47161336 9.28314769 2.4375 12.375 C-0.8994213 14.5996142 -3.06905293 14.50030235 -7 14 C-8.9375 12.9375 -8.9375 12.9375 -10 11 C-10.50030235 7.06905293 -10.5996142 4.8994213 -8.375 1.5625 C-5.28314769 -0.47161336 -3.63632575 -0.60605429 0 0 Z " fill="#0B0B0B" transform="translate(252,163)"/>
<path d="M0 0 C0.66 0.33 1.32 0.66 2 1 C1.35174754 7.48252464 -0.04649755 13.57721114 -1.6875 19.875 C-4.2693589 29.97490335 -6.67893613 40.10503273 -8.99487305 50.26904297 C-10.27041091 55.86276673 -11.58333277 61.44024934 -13 67 C-15.6421231 63.03681535 -14.87336845 60.44353597 -14 56 C-13.02804815 51.63494402 -11.94217942 47.30250311 -10.83984375 42.96875 C-10.53051407 41.73709106 -10.22118439 40.50543213 -9.90248108 39.2364502 C-9.08553064 35.9871613 -8.26451904 32.73895573 -7.44146729 29.49121094 C-6.60009459 26.16688699 -5.76415389 22.84119796 -4.92773438 19.515625 C-3.29012275 13.00915649 -1.64713724 6.5040632 0 0 Z " fill="#2F2F2F" transform="translate(308,192)"/>
<path d="M0 0 C2.20820928 3.31231391 2.8607408 5.87208026 3.8046875 9.73046875 C4.05256516 10.73259148 4.05256516 10.73259148 4.30545044 11.75495911 C4.83418639 13.89781868 5.35476624 16.0425622 5.875 18.1875 C6.21689928 19.58021293 6.55934233 20.97279248 6.90234375 22.36523438 C7.59104598 25.16313834 8.27602637 27.96191933 8.95898438 30.76123047 C9.83088509 34.32574759 10.72486716 37.88436071 11.62399292 41.4420929 C13.13768184 47.43814195 14.58183 53.42551599 15.75 59.5 C15.99234375 60.7478125 16.2346875 61.995625 16.484375 63.28125 C16.65453125 64.1784375 16.8246875 65.075625 17 66 C16.01 66 15.02 66 14 66 C13.76925781 64.90945313 13.53851563 63.81890625 13.30078125 62.6953125 C11.62352123 54.8949166 9.83349543 47.16816543 7.625 39.5 C5.41453885 31.7576776 3.47600723 23.96075071 1.625 16.125 C1.34994629 14.98869141 1.07489258 13.85238281 0.79150391 12.68164062 C0.54319824 11.61365234 0.29489258 10.54566406 0.0390625 9.4453125 C-0.18571777 8.49156738 -0.41049805 7.53782227 -0.64208984 6.55517578 C-1.00051453 3.99632669 -0.82483748 2.42318288 0 0 Z " fill="#212121" transform="translate(191,193)"/>
<path d="M0 0 C0.66 0 1.32 0 2 0 C3.85661416 7.19433381 5.70035978 14.39183702 7.52793217 21.59360695 C8.37703122 24.93790828 9.23045398 28.2809778 10.09399414 31.62158203 C11.08750496 35.46577603 12.06178959 39.31471635 13.03515625 43.1640625 C13.34655045 44.35802643 13.65794464 45.55199036 13.97877502 46.78213501 C14.25914108 47.90284393 14.53950714 49.02355286 14.82836914 50.17822266 C15.07929825 51.15973297 15.33022736 52.14124329 15.58876038 53.15249634 C16.04963347 56.34367184 15.68180472 58.86453677 15 62 C12.88167216 58.31749605 11.96979328 54.38764977 10.9765625 50.296875 C10.78911469 49.54142395 10.60166687 48.7859729 10.40853882 48.00762939 C9.80958232 45.58949209 9.21715341 43.16981123 8.625 40.75 C8.23481378 39.16916247 7.84419268 37.58843221 7.453125 36.0078125 C6.87088411 33.65436816 6.28998471 31.30064507 5.71392822 28.94567871 C4.77587271 25.11322625 3.82010808 21.28730208 2.81933594 17.47070312 C2.63269379 16.75102356 2.44605164 16.03134399 2.25375366 15.28985596 C1.74502536 13.33416786 1.22897524 11.3803885 0.71240234 9.42675781 C0.03510799 6.16887449 -0.13900679 3.3145821 0 0 Z " fill="#212121" transform="translate(315,198)"/>
<path d="M0 0 C0.66 0.33 1.32 0.66 2 1 C-0.83274333 14.1079488 -3.9680493 27.12287883 -7.25 40.125 C-7.71376587 41.96999574 -8.17730859 43.81504759 -8.640625 45.66015625 C-9.75785846 50.10741852 -10.87806256 54.55392221 -12 59 C-14 56 -14 56 -13.84803772 53.6756897 C-13.6623674 52.78578339 -13.47669708 51.89587708 -13.28540039 50.97900391 C-12.98292892 49.50696503 -12.98292892 49.50696503 -12.67434692 48.00518799 C-11.64854378 43.43375571 -10.57710556 38.87941403 -9.43359375 34.3359375 C-9.19463882 33.37724762 -8.9556839 32.41855774 -8.70948792 31.43081665 C-8.20950643 29.42886744 -7.70777646 27.42735414 -7.2043457 25.42626953 C-6.43103773 22.3492867 -5.66539343 19.2704632 -4.90039062 16.19140625 C-4.41191167 14.23946983 -3.92299557 12.28764274 -3.43359375 10.3359375 C-3.20441757 9.4131601 -2.97524139 8.49038269 -2.73912048 7.53964233 C-2.52542313 6.69430939 -2.31172577 5.84897644 -2.09155273 4.97802734 C-1.90439194 4.23177094 -1.71723114 3.48551453 -1.5243988 2.71664429 C-1 1 -1 1 0 0 Z " fill="#272727" transform="translate(183,201)"/>
<path d="M0 0 C0.66 0.33 1.32 0.66 2 1 C1.3143155 7.9838236 -0.23430878 14.6369883 -1.9375 21.4375 C-2.33485352 23.08782227 -2.33485352 23.08782227 -2.74023438 24.77148438 C-2.99998047 25.81498047 -3.25972656 26.85847656 -3.52734375 27.93359375 C-3.76187256 28.88290771 -3.99640137 29.83222168 -4.23803711 30.81030273 C-5 33 -5 33 -7 34 C-6.50331455 26.20367589 -4.91293993 18.9192555 -2.9375 11.375 C-2.65583984 10.27542969 -2.37417969 9.17585937 -2.08398438 8.04296875 C-1.39580462 5.3602341 -0.70104562 2.67939571 0 0 Z " fill="#1E1E1E" transform="translate(308,192)"/>
<path d="M0 0 C2 1 2 1 3.21875 4.6484375 C3.65543848 6.22132314 4.08193923 7.79706107 4.5 9.375 C4.72067139 10.18759277 4.94134277 11.00018555 5.16870117 11.83740234 C6.76856785 17.84003063 8.09251169 23.85075087 9 30 C8.01 30 7.02 30 6 30 C5.73445312 28.7934375 5.46890625 27.586875 5.1953125 26.34375 C4.83859941 24.72915391 4.48182532 23.11457129 4.125 21.5 C3.95097656 20.70851562 3.77695313 19.91703125 3.59765625 19.1015625 C2.74905603 15.2671467 1.8660755 11.45449079 0.8671875 7.65625 C0 4 0 4 0 0 Z " fill="#181818" transform="translate(199,229)"/>
<path d="M0 0 C1.75288371 3.19958687 2.76776911 6.34861718 3.6875 9.875 C3.95949219 10.88304687 4.23148437 11.89109375 4.51171875 12.9296875 C5.03877168 16.2437963 4.72448553 18.74224626 4 22 C1.87014412 18.36343385 1.11248146 14.52410479 0.3125 10.4375 C0.17005859 9.76525391 0.02761719 9.09300781 -0.11914062 8.40039062 C-0.77535823 5.11277307 -1.07859084 3.23577251 0 0 Z " fill="#262626" transform="translate(326,238)"/>
<path d="M0 0 C0.66 0 1.32 0 2 0 C2.67250524 2.58193977 3.33817901 5.16532071 4 7.75 C4.19078125 8.47960937 4.3815625 9.20921875 4.578125 9.9609375 C5.46515964 13.44571646 6 16.38123722 6 20 C5.34 20 4.68 20 4 20 C3.32331051 17.79471728 2.65906502 15.58561391 2 13.375 C1.62875 12.14523438 1.2575 10.91546875 0.875 9.6484375 C0.06272281 6.26153174 -0.17041013 3.46145571 0 0 Z " fill="#1E1E1E" transform="translate(315,198)"/>
<path d="M0 0 C1.69433918 3.0469629 2.49467112 5.82821466 3.125 9.25 C3.29257813 10.14203125 3.46015625 11.0340625 3.6328125 11.953125 C3.75398437 12.62859375 3.87515625 13.3040625 4 14 C3.01 14.33 2.02 14.66 1 15 C-0.66251802 9.42567486 -1.18609365 5.6932495 0 0 Z " fill="#383838" transform="translate(197,216)"/>
<path d="M0 0 C1.8133922 3.20010388 2.52213974 6.13283843 3.125 9.75 C3.29257813 10.73484375 3.46015625 11.7196875 3.6328125 12.734375 C3.81457031 13.85585938 3.81457031 13.85585938 4 15 C3.01 15 2.02 15 1 15 C-0.66251802 9.42567486 -1.18609365 5.6932495 0 0 Z " fill="#2A2A2A" transform="translate(204,244)"/>
<path d="M0 0 C0.99 0 1.98 0 3 0 C3.66 3.3 4.32 6.6 5 10 C4.01 10 3.02 10 2 10 C1.34 6.7 0.68 3.4 0 0 Z " fill="#2B2B2B" transform="translate(319,218)"/>
<path d="M0 0 C1.07310858 3.27185553 0.89263102 5.42947592 0.0625 8.75 C-0.22947266 9.94882812 -0.22947266 9.94882812 -0.52734375 11.171875 C-0.68332031 11.77515625 -0.83929688 12.3784375 -1 13 C-3 10 -3 10 -2.79296875 7.7734375 C-2.59316406 6.98195312 -2.39335937 6.19046875 -2.1875 5.375 C-1.99542969 4.57835937 -1.80335938 3.78171875 -1.60546875 2.9609375 C-1 1 -1 1 0 0 Z " fill="#202020" transform="translate(172,247)"/>
<path d="M0 0 C0.33 0 0.66 0 1 0 C1.10836453 1.43583001 1.18576167 2.8740202 1.25 4.3125 C1.29640625 5.11300781 1.3428125 5.91351563 1.390625 6.73828125 C1 9 1 9 -3 12 C-2.01 8.04 -1.02 4.08 0 0 Z " fill="#D7D7D7" transform="translate(309,199)"/>
<path d="M0 0 C0.33 0 0.66 0 1 0 C1.268125 1.051875 1.53625 2.10375 1.8125 3.1875 C2.8676829 6.57519246 4.04726378 9.07089567 6 12 C3.03 11.505 3.03 11.505 0 11 C0 7.37 0 3.74 0 0 Z " fill="#DDDDDD" transform="translate(241,168)"/>
<path d="M0 0 C0.99 0.33 1.98 0.66 3 1 C2.34 4.3 1.68 7.6 1 11 C-1.78637633 6.8204355 -0.79562512 4.85331323 0 0 Z " fill="#404040" transform="translate(294,248)"/>
<path d="M0 0 C0.66 0.33 1.32 0.66 2 1 C1.34 4.3 0.68 7.6 0 11 C-2 8 -2 8 -1.6875 4.375 C-1 1 -1 1 0 0 Z " fill="#2F2F2F" transform="translate(176,229)"/>
<path d="M0 0 C2.32590854 3.63423209 2.16265833 6.77088331 2 11 C0.4375 9.4375 0.4375 9.4375 -1 7 C-0.6875 3.25 -0.6875 3.25 0 0 Z " fill="#2C2C2C" transform="translate(195,208)"/>
<path d="M0 0 C0.66 0.33 1.32 0.66 2 1 C1.67 3.64 1.34 6.28 1 9 C0.01 9.33 -0.98 9.66 -2 10 C-1.34 6.7 -0.68 3.4 0 0 Z " fill="#262626" transform="translate(308,192)"/>
<path d="M0 0 C1.88391785 3.26545761 2.49287967 6.28111761 3 10 C2.01 10 1.02 10 0 10 C-1.125 3.375 -1.125 3.375 0 0 Z " fill="#2E2E2E" transform="translate(326,238)"/>
<path d="M0 0 C0.33 0 0.66 0 1 0 C1.125 3.375 1.125 3.375 1 7 C0.34 7.66 -0.32 8.32 -1 9 C-2.25541557 5.23375329 -1.37061958 3.62811066 0 0 Z " fill="#1C1C1C" transform="translate(178,221)"/>
<path d="" fill="#FFFFFF" transform="translate(0,0)"/>
</svg>
